<svg xmlns="http://www.w3.org/2000/svg" xmlns:xlink="http://www.w3.org/1999/xlink" width="60" zoomAndPan="magnify" viewBox="0 0 45 44.999999" height="60" preserveAspectRatio="xMidYMid meet" version="1.0"><defs><clipPath id="ebc8d4f2b5"><path d="M 1.199219 12 L 33 12 L 33 33 L 1.199219 33 Z M 1.199219 12 " clip-rule="nonzero"/></clipPath><clipPath id="f9b5585a47"><path d="M 18 1.199219 L 43.796875 1.199219 L 43.796875 43.949219 L 18 43.949219 Z M 18 1.199219 " clip-rule="nonzero"/></clipPath></defs><g clip-path="url(#ebc8d4f2b5)"><path fill="#ffffff" d="M 6.171875 21.082031 L 31.0625 21.082031 C 31.84375 21.082031 32.476562 21.71875 32.476562 22.5 C 32.476562 23.28125 31.84375 23.914062 31.0625 23.914062 L 6.171875 23.914062 L 12.25 29.988281 C 12.800781 30.542969 12.800781 31.4375 12.25 31.992188 C 11.695312 32.542969 10.800781 32.542969 10.246094 31.992188 L 1.757812 23.5 C 1.203125 22.949219 1.203125 22.050781 1.757812 21.5 L 10.246094 13.007812 C 10.800781 12.457031 11.695312 12.457031 12.25 13.007812 C 12.800781 13.558594 12.800781 14.457031 12.25 15.007812 Z M 6.171875 21.082031 " fill-opacity="1" fill-rule="evenodd"/></g><g clip-path="url(#f9b5585a47)"><path fill="#ffffff" d="M 18.324219 11.175781 L 18.324219 5.515625 C 18.324219 3.171875 20.222656 1.269531 22.570312 1.269531 L 39.550781 1.269531 C 41.898438 1.269531 43.796875 3.171875 43.796875 5.515625 L 43.796875 39.480469 C 43.796875 41.828125 41.898438 43.726562 39.550781 43.726562 L 22.570312 43.726562 C 20.222656 43.726562 18.324219 41.828125 18.324219 39.480469 C 18.324219 39.480469 18.324219 33.820312 18.324219 33.820312 C 18.324219 33.039062 18.957031 32.40625 19.738281 32.40625 C 20.519531 32.40625 21.15625 33.039062 21.15625 33.820312 L 21.15625 39.480469 C 21.15625 40.261719 21.789062 40.894531 22.570312 40.894531 C 22.570312 40.894531 39.550781 40.894531 39.550781 40.894531 C 40.332031 40.894531 40.96875 40.261719 40.96875 39.480469 L 40.96875 5.515625 C 40.96875 4.734375 40.332031 4.101562 39.550781 4.101562 C 39.550781 4.101562 22.570312 4.101562 22.570312 4.101562 C 21.789062 4.101562 21.15625 4.734375 21.15625 5.515625 L 21.15625 11.175781 C 21.15625 11.957031 20.519531 12.59375 19.738281 12.59375 C 18.957031 12.59375 18.324219 11.957031 18.324219 11.175781 Z M 18.324219 11.175781 " fill-opacity="1" fill-rule="evenodd"/></g></svg>